<svg xmlns="http://www.w3.org/2000/svg" height="800" width="1200" viewBox="-37.38255 -62.30425 323.9821 373.8255"><path fill="#75c154" d="M206.62 126.01l-.431.04a79.044 79.044 0 01-3.655.254l-.19.008c-.542.022-1.083.042-1.623.056a86.19 86.19 0 01-1.864.021l-.064-.001c-.7 0-1.407-.014-2.117-.036-.144-.004-.287-.014-.431-.019a74.02 74.02 0 01-1.87-.095c-.102-.006-.205-.016-.309-.022a72.378 72.378 0 01-4.526-.459l-.144-.02-.122-.008c-7.693-1.045-14.896-3.224-21.794-5.753l-.08-.032c-.871-.344-1.74-.698-2.618-1.055-1.841-.757-3.678-1.53-5.516-2.3-6.309-2.652-12.834-5.393-19.542-7.507a54.57 54.57 0 00-15.36-2.54c-.131-.004-.263-.004-.395-.009-.043 0-.085-.004-.128-.004h-.039a41.337 41.337 0 00-7.45.436 60.307 60.307 0 00-8.679 1.76 141.242 141.242 0 002.561-3.328c1.586-2.123 2.828-4.808 3.798-8.207.344-1.2 1.141-3.994.162-6.76.187-.17.37-.344.558-.512a22.757 22.757 0 004.264-3.526 69.088 69.088 0 0115.514-8.962c8.571-3.545 18.923-5.838 30.626-4.66 31.069 3.132 43.043 9.728 64.949-14.493C208.045 23.267 169.048 0 124.609 0 74.759 0 31.752 29.277 11.828 71.572c5.495 5.31 16.533 10.58 38.061 5.744a30.207 30.207 0 0114.424-3.644 30.124 30.124 0 0114.417 3.644c37.258 8.37 43.14-13.521 43.14-13.521 0 15.49-6.181 22.32-15.552 25.165.804.313 1.475.633 2.02.984 1.998 1.277 2.35 2.945 1.463 6.038-.677 2.372-1.635 4.832-3.092 6.784-3.56 4.778-7.49 9.284-11.276 13.896-.019.036-.039.018-.027.124.08.771.735 1.155 1.438.827.205-.096.408-.193.61-.29 6.372-3.082 12.875-5.169 19.484-5.994a49.961 49.961 0 016.852-.396c4.816.044 9.692.799 14.612 2.35 8.419 2.653 16.526 6.318 24.708 9.68.892.363 1.783.727 2.675 1.078 7.479 2.99 15.079 5.537 23.173 6.081 3.214.43 6.51.672 9.9.672 2.664 0 5.801-.126 8.293-.358.028 5.653.022 11.305 0 16.944v55.6a5.693 5.693 0 01-5.838 5.909c-2.999-.072-5.381-2.58-5.547-5.574l-.374-6.709c-1.448-10.885-4.436-21.214-9.355-31.72-1.85 5.862-3.644 11.55-5.41 17.17-1.773 5.613-3.517 11.149-5.26 16.692l-1.949 6.553c-.826 2.774-3.864 4.424-6.836 3.264-2.052-.808-3.28-2.928-3.102-5.124 0 0 3.366-27.725 1.798-42.341-14.192 8.993-29.64 12.502-46.165 12.777-.43 9.973-.848 19.116-1.283 29.193v.623a5.276 5.276 0 01-5.75 5.258c-2.504-.224-4.458-2.282-4.782-4.769l-1.222-8.748c-1.052-6.746-2.09-13.433-3.13-20.11h-.712c-.908 6.48-1.816 12.968-2.745 19.576l-1.101 9.07a5.394 5.394 0 01-6.334 4.655c-2.52-.452-4.325-2.707-4.422-5.267l-.43-10.614c-.349-7.215-.696-14.324-1.086-21.43-.044-.754-.683-1.501-1.139-2.196l-.067-.101a78.308 78.308 0 01-9.7-20.776 2778.795 2778.795 0 01-4.652-15.712c4.067-1.575 7.876-4.612 8.404-5.492.534-.883-.54-1.845-1.59-1.217-1.2.754-4.514 2.106-6.082 2.24-3.736.318-7.517.192-11.275.144-4.6-.062-7.48-3.039-7.644-7.64-.066-1.904.072-3.963-.595-5.674-2.75-7.054-4.715-14.258-4.848-21.869-.027-1.481-.5-2.124-1.54-2.323-2.868.1-5.68.16-8.387.12-12.73-.188-23.304-2.549-27.85-13.142C3.256 92.162 0 108.006 0 124.609c0 68.819 55.79 124.608 124.609 124.608 68.819 0 124.608-55.79 124.608-124.608 0-5.496-.359-10.907-1.05-16.215-9.058 7.578-22.88 15.782-41.546 17.616"/></svg>